<?xml version="1.0" encoding="UTF-8"?>
<svg version="1.1" xmlns="http://www.w3.org/2000/svg" width="252" height="53">
<path d="M0 0 C4.32322461 -0.12400035 8.64549602 -0.21452256 12.9699707 -0.2746582 C14.43955525 -0.29973644 15.90901587 -0.33380856 17.37817383 -0.37719727 C19.49591681 -0.43815499 21.61200576 -0.46627316 23.73046875 -0.48828125 C25.00301514 -0.51446533 26.27556152 -0.54064941 27.58666992 -0.56762695 C31.883195 0.14687278 33.29513145 1.67114788 36 5 C37.18695418 7.37390836 37.12075833 8.80244951 37.11352539 11.44970703 C37.11344986 12.37051056 37.11337433 13.29131409 37.11329651 14.24002075 C37.10813522 15.23589203 37.10297394 16.23176331 37.09765625 17.2578125 C37.0962413 18.27600067 37.09482635 19.29418884 37.09336853 20.3432312 C37.087759 23.60385035 37.07520488 26.86440151 37.0625 30.125 C37.05748623 32.33203026 37.05292311 34.53906159 37.04882812 36.74609375 C37.03778648 42.16408581 37.02103905 47.58203805 37 53 C32.60192783 51.39868849 30.11439082 49.5469451 27 46 C25.87816292 42.63448877 25.79199032 39.90939768 25.68359375 36.36328125 C25.64169922 35.06455078 25.59980469 33.76582031 25.55664062 32.42773438 C25.51683013 31.05599239 25.47711784 29.68424756 25.4375 28.3125 C25.39429165 26.92902355 25.35067661 25.54555973 25.30664062 24.16210938 C25.20041972 20.77484281 25.09837642 17.38750201 25 14 C23.92621094 13.92523438 22.85242188 13.85046875 21.74609375 13.7734375 C8.06593009 12.59892662 8.06593009 12.59892662 3.1640625 7.828125 C1.59900159 5.3702441 0.88818092 2.76416494 0 0 Z " fill="#CB2C2D" transform="translate(0,0)"/>
<path d="M0 0 C3.33333333 0 6.66666667 0 10 0 C11.04994141 -0.05220703 11.04994141 -0.05220703 12.12109375 -0.10546875 C18.43768634 -0.32915921 18.43768634 -0.32915921 21.5625 1.5 C22.036875 1.995 22.51125 2.49 23 3 C23.474375 2.505 23.94875 2.01 24.4375 1.5 C28.22078499 -0.71460585 31.72842456 -0.96700549 36 0 C38.79278995 2.14880544 40.42751862 4.85503723 42 8 C42.08426094 9.6674606 42.10725143 11.33825187 42.09765625 13.0078125 C42.09443359 13.99394531 42.09121094 14.98007812 42.08789062 15.99609375 C42.07532227 17.54490234 42.07532227 17.54490234 42.0625 19.125 C42.05798828 20.16527344 42.05347656 21.20554687 42.04882812 22.27734375 C42.03701952 24.85161962 42.02055075 27.42578146 42 30 C39.69 30 37.38 30 35 30 C34.97494385 29.44014404 34.9498877 28.88028809 34.92407227 28.3034668 C34.80796255 25.76458695 34.6853042 23.22606447 34.5625 20.6875 C34.52318359 19.80642578 34.48386719 18.92535156 34.44335938 18.01757812 C34.40146484 17.17001953 34.35957031 16.32246094 34.31640625 15.44921875 C34.27974854 14.66893311 34.24309082 13.88864746 34.20532227 13.0847168 C34.05874737 10.80670899 34.05874737 10.80670899 33 8 C31.13803054 7.07606836 31.13803054 7.07606836 29 7 C25.81345218 8.61399973 25.81345218 8.61399973 25.56762695 11.15478516 C25.54144287 12.02409668 25.51525879 12.8934082 25.48828125 13.7890625 C25.45283203 14.73007812 25.41738281 15.67109375 25.38085938 16.640625 C25.35830078 17.62546875 25.33574219 18.6103125 25.3125 19.625 C25.27833984 20.61757813 25.24417969 21.61015625 25.20898438 22.6328125 C25.12634343 25.08842906 25.05724873 27.54368141 25 30 C22.36 30 19.72 30 17 30 C16.505 18.615 16.505 18.615 16 7 C10.48436516 7.32188877 10.48436516 7.32188877 9 9 C8.84313751 10.55948542 8.74923361 12.12542668 8.68359375 13.69140625 C8.64169922 14.63564453 8.59980469 15.57988281 8.55664062 16.55273438 C8.51732422 17.54595703 8.47800781 18.53917969 8.4375 19.5625 C8.39431641 20.55958984 8.35113281 21.55667969 8.30664062 22.58398438 C8.20019702 25.0558415 8.09818072 27.5278031 8 30 C5.36 30 2.72 30 0 30 C0 20.1 0 10.2 0 0 Z " fill="#EC5C31" transform="translate(145,22)"/>
<path d="M0 0 C4.41070475 2.16345449 6.49544766 4.88578025 8.5 9.3125 C9.30744722 15.26742325 8.99921982 19.92469729 6.375 25.375 C2.6204915 29.52471992 -1.06195367 30.79599512 -6.5625 31.375 C-11.7187245 30.81250278 -14.78916277 29.30901323 -18.3125 25.5 C-21.45473716 20.84483383 -21.5037545 16.43868282 -21 11 C-19.57726221 6.88986859 -17.50029314 3.61225623 -14 0.92578125 C-9.51333289 -1.15105489 -4.7681675 -0.89363246 0 0 Z M-11.375 8 C-13.46264825 11.85411985 -13.71084553 14.7089203 -13 19 C-11.6512437 22.33639717 -10.87693977 23.58460748 -7.625 25.125 C-4.78813649 25.23066021 -4.78813649 25.23066021 -2.25 23 C0.4039515 19.461398 0.92149945 17.39603069 1 13 C0.08324478 9.82661654 -0.66340837 8.33659163 -3 6 C-6.83739404 5.41604873 -8.36565916 5.46581824 -11.375 8 Z " fill="#EC5C31" transform="translate(133,22)"/>
<path d="M0 0 C2.86112464 1.34735888 3.90151462 2.50450388 6 5 C7.03567436 8.01791152 7.11701177 10.81006988 7.09765625 13.984375 C7.09443359 14.91894531 7.09121094 15.85351562 7.08789062 16.81640625 C7.07951172 17.78449219 7.07113281 18.75257812 7.0625 19.75 C7.05798828 20.73355469 7.05347656 21.71710937 7.04882812 22.73046875 C7.03706483 25.15370791 7.02062684 27.57682273 7 30 C4 30 1 30 -2 30 C-3.258125 30.226875 -4.51625 30.45375 -5.8125 30.6875 C-8.95051796 31.09754953 -9.87755886 31.05589704 -12.875 29.6875 C-16.78307509 26.58402861 -16.78307509 26.58402861 -17.8125 23.8125 C-18.07859081 19.82113783 -16.9272116 17.46898088 -15 14 C-11.16165497 10.81965697 -6.77477641 10.05206938 -2 9 C-2.33 8.34 -2.66 7.68 -3 7 C-8.57830016 6.87530901 -8.57830016 6.87530901 -14 8 C-14.66 6.02 -15.32 4.04 -16 2 C-11.00493616 -0.97552846 -5.63508909 -0.74482486 0 0 Z M-9 18 C-10.07272562 20.44539786 -10.07272562 20.44539786 -10 23 C-9.34 23.66 -8.68 24.32 -8 25 C-4.70285207 24.67028521 -3.3773161 24.3773161 -1 22 C-0.83318891 18.91652174 -0.83318891 18.91652174 -1 16 C-4.30941204 16 -6.11090151 16.40339294 -9 18 Z " fill="#EE5B30" transform="translate(76,22)"/>
<path d="M0 0 C2.31 0 4.62 0 7 0 C7 0.66 7 1.32 7 2 C7.56847656 1.67773438 8.13695312 1.35546875 8.72265625 1.0234375 C12.42805934 -0.64176938 16.01666303 -0.59643548 20 0 C22.87029869 1.79393668 24.49131638 2.98263276 26 6 C26.08471364 7.81341842 26.10721083 9.62994161 26.09765625 11.4453125 C26.09443359 12.52167969 26.09121094 13.59804688 26.08789062 14.70703125 C26.07951172 15.83496094 26.07113281 16.96289062 26.0625 18.125 C26.05798828 19.26066406 26.05347656 20.39632812 26.04882812 21.56640625 C26.03701615 24.37765638 26.02054507 27.1888023 26 30 C23.69 30 21.38 30 19 30 C18.98018066 29.40985107 18.96036133 28.81970215 18.93994141 28.21166992 C18.84465341 25.53649904 18.73499061 22.86210502 18.625 20.1875 C18.5940625 19.25873047 18.563125 18.32996094 18.53125 17.37304688 C18.49257812 16.48037109 18.45390625 15.58769531 18.4140625 14.66796875 C18.36693115 13.43469849 18.36693115 13.43469849 18.31884766 12.17651367 C18.11626378 9.71047063 18.11626378 9.71047063 16 7 C12.06924356 7.57452746 12.06924356 7.57452746 9 10 C8.63047951 12.12860662 8.63047951 12.12860662 8.5859375 14.5703125 C8.52792969 15.91416016 8.52792969 15.91416016 8.46875 17.28515625 C8.42234375 18.69087891 8.42234375 18.69087891 8.375 20.125 C8.31699219 21.54232422 8.31699219 21.54232422 8.2578125 22.98828125 C8.16338654 25.32532375 8.07781606 27.66235501 8 30 C5.69 30 3.38 30 1 30 C0.67 20.1 0.34 10.2 0 0 Z " fill="#EF5A2F" transform="translate(205,22)"/>
<path d="M0 0 C2.64 0 5.28 0 8 0 C9.98 5.61 11.96 11.22 14 17 C16.75361142 14.24638858 17.47414027 11.00154636 18.625 7.375 C18.85445312 6.66859375 19.08390625 5.9621875 19.3203125 5.234375 C19.88562421 3.49133055 20.44352544 1.74588584 21 0 C23.64 0 26.28 0 29 0 C27.0173911 7.06512428 24.592956 13.83726835 21.8125 20.625 C21.44447266 21.53378906 21.07644531 22.44257812 20.69726562 23.37890625 C19.80216521 25.58759559 18.9030465 27.79455048 18 30 C15.36 30 12.72 30 10 30 C8.5695796 26.21204894 7.1456021 22.42174552 5.72753906 18.62915039 C5.24427735 17.33942542 4.75926331 16.05035562 4.27246094 14.76196289 C3.57286085 12.90945042 2.88008767 11.05436431 2.1875 9.19921875 C1.76855469 8.08377686 1.34960938 6.96833496 0.91796875 5.8190918 C0 3 0 3 0 0 Z " fill="#EC5C32" transform="translate(84,22)"/>
<path d="M0 0 C0 2.64 0 5.28 0 8 C2.31 8 4.62 8 7 8 C7 9.98 7 11.96 7 14 C4.69 14 2.38 14 0 14 C0.33 19.94 0.66 25.88 1 32 C2.98 32 4.96 32 7 32 C7.04254356 33.99954746 7.04080783 36.00041636 7 38 C6 39 6 39 2.6875 39.1875 C-2.39581438 38.92902639 -2.39581438 38.92902639 -5 37 C-6.7961777 34.05263203 -7.24164248 31.88154363 -7.1953125 28.453125 C-7.18886719 27.60878906 -7.18242187 26.76445313 -7.17578125 25.89453125 C-7.15902344 25.02183594 -7.14226562 24.14914063 -7.125 23.25 C-7.11597656 22.36183594 -7.10695312 21.47367188 -7.09765625 20.55859375 C-7.07414577 18.37211942 -7.04128499 16.18619906 -7 14 C-8.32 14 -9.64 14 -11 14 C-11 12.02 -11 10.04 -11 8 C-9.68 8 -8.36 8 -7 8 C-7 6.02 -7 4.04 -7 2 C-2.25 0 -2.25 0 0 0 Z " fill="#EC5B31" transform="translate(245,14)"/>
<path d="M0 0 C5.33333333 0 10.66666667 0 16 0 C16 2.31 16 4.62 16 7 C15.030625 7.28875 14.06125 7.5775 13.0625 7.875 C9.89335797 8.64214682 9.89335797 8.64214682 9 11 C8.84932786 12.4465242 8.75138964 13.8987934 8.68359375 15.3515625 C8.64169922 16.20234375 8.59980469 17.053125 8.55664062 17.9296875 C8.51732422 18.81914063 8.47800781 19.70859375 8.4375 20.625 C8.39431641 21.5221875 8.35113281 22.419375 8.30664062 23.34375 C8.20043139 25.56234283 8.09838806 27.7810488 8 30 C5.36 30 2.72 30 0 30 C0 20.1 0 10.2 0 0 Z " fill="#E95D33" transform="translate(42,22)"/>
<path d="M0 0 C2.31 0 4.62 0 7 0 C7 9.9 7 19.8 7 30 C4.69 30 2.38 30 0 30 C0 20.1 0 10.2 0 0 Z " fill="#EB5C31" transform="translate(193,22)"/>
<path d="M0 0 C6.27 0 12.54 0 19 0 C15.4389409 7.12211821 12.38056346 10.39509525 5 13 C4.80664062 12.31292969 4.61328125 11.62585937 4.4140625 10.91796875 C4.15367188 10.01691406 3.89328125 9.11585937 3.625 8.1875 C3.36976562 7.29417969 3.11453125 6.40085937 2.8515625 5.48046875 C2.04733339 2.79532104 2.04733339 2.79532104 0 0 Z " fill="#BF232D" transform="translate(45,0)"/>
<path d="M0 0 C3.96 0 7.92 0 12 0 C12.28875 0.94875 12.5775 1.8975 12.875 2.875 C13.76825109 6.05211578 13.76825109 6.05211578 16 8 C16 8.99 16 9.98 16 11 C16.99 11.33 17.98 11.66 19 12 C10.72097866 12.89953149 10.72097866 12.89953149 6.84765625 10.875 C3.00703449 7.75703223 1.05923355 4.94308989 0 0 Z " fill="#D2372E" transform="translate(0,0)"/>
<path d="M0 0 C9.00875732 -0.77365282 9.00875732 -0.77365282 12.5625 2 C14.38333001 5.79999306 14.71551893 8.80390417 15 13 C12.03 13 9.06 13 6 13 C4.97460938 9.6796875 4.97460938 9.6796875 3.94921875 6.359375 C2.94891677 3.87302768 1.69142391 2.0657166 0 0 Z " fill="#F06C38" transform="translate(33,0)"/>
<path d="M0 0 C2.97 0 5.94 0 9 0 C9.33 1.32 9.66 2.64 10 4 C9.01 4.495 9.01 4.495 8 5 C8 5.99 8 6.98 8 8 C8.66 8 9.32 8 10 8 C9.67 14.93 9.34 21.86 9 29 C10.98 29 12.96 29 15 29 C15 29.33 15 29.66 15 30 C12.69 30 10.38 30 8 30 C7.98018066 29.40985107 7.96036133 28.81970215 7.93994141 28.21166992 C7.84465341 25.53649904 7.73499061 22.86210502 7.625 20.1875 C7.5940625 19.25873047 7.563125 18.32996094 7.53125 17.37304688 C7.49257812 16.48037109 7.45390625 15.58769531 7.4140625 14.66796875 C7.3826416 13.84578857 7.3512207 13.0236084 7.31884766 12.17651367 C7.11626378 9.71047063 7.11626378 9.71047063 5 7 C4.01 6.34 3.02 5.68 2 5 C2.66 5 3.32 5 4 5 C4 3.68 4 2.36 4 1 C2.68 0.67 1.36 0.34 0 0 Z " fill="#E0603A" transform="translate(216,22)"/>
<path d="M0 0 C1.07765625 0.01804687 2.1553125 0.03609375 3.265625 0.0546875 C4.49539062 0.08949219 4.49539062 0.08949219 5.75 0.125 C5.75 0.455 5.75 0.785 5.75 1.125 C3.11 1.455 0.47 1.785 -2.25 2.125 C-2.25 2.785 -2.25 3.445 -2.25 4.125 C-0.93 4.785 0.39 5.445 1.75 6.125 C-1.55 6.785 -4.85 7.445 -8.25 8.125 C-8.91 6.145 -9.57 4.165 -10.25 2.125 C-6.7733662 -0.01836161 -4.03770805 -0.08777626 0 0 Z " fill="#E36036" transform="translate(70.25,21.875)"/>
<path d="M0 0 C3 0.125 3 0.125 4 1.125 C4.04080783 3.12458364 4.04254356 5.12545254 4 7.125 C1.125 7.75 1.125 7.75 -2 8.125 C-4 6.125 -4 6.125 -4.1875 3.5625 C-3.91067812 -0.03618446 -3.67800108 0.15325004 0 0 Z " fill="#E75D37" transform="translate(196,11.875)"/>
<path d="M0 0 C2.31 0 4.62 0 7 0 C6.67 0.66 6.34 1.32 6 2 C5.01 1.67 4.02 1.34 3 1 C2.67 10.24 2.34 19.48 2 29 C3.98 29 5.96 29 8 29 C8 29.33 8 29.66 8 30 C5.69 30 3.38 30 1 30 C0.67 20.1 0.34 10.2 0 0 Z " fill="#D9623F" transform="translate(205,22)"/>
<path d="M0 0 C3 1 3 1 4.1875 2.5625 C5.37040794 6.11122383 5.12443279 9.26701621 5 13 C4.34 12.67 3.68 12.34 3 12 C3 11.34 3 10.68 3 10 C2.01 10 1.02 10 0 10 C0.2784375 9.0409375 0.2784375 9.0409375 0.5625 8.0625 C0.706875 7.381875 0.85125 6.70125 1 6 C0.67 5.67 0.34 5.34 0 5 C-0.04063832 3.33382885 -0.042721 1.66611905 0 0 Z " fill="#C1202A" transform="translate(32,2)"/>
<path d="M0 0 C3.49413605 2.86698342 5.28836874 4.84150148 5.8125 9.3125 C5.874375 10.529375 5.93625 11.74625 6 13 C3.03 13 0.06 13 -3 13 C-1.68 12.67 -0.36 12.34 1 12 C2.02977875 7.23727328 2.39511469 4.34114537 0 0 Z " fill="#EB5F33" transform="translate(42,0)"/>
<path d="M0 0 C2.31 0 4.62 0 7 0 C7 1.98 7 3.96 7 6 C5.02 6 3.04 6 1 6 C0.67 4.02 0.34 2.04 0 0 Z " fill="#E45E3A" transform="translate(245,22)"/>
<path d="M0 0 C2.64 0 5.28 0 8 0 C8 2.31 8 4.62 8 7 C4.46399535 5.08864614 2.21027154 3.37357234 0 0 Z " fill="#F27C3B" transform="translate(33,0)"/>
<path d="M0 0 C-0.66 1.32 -1.32 2.64 -2 4 C-2.66 3.34 -3.32 2.68 -4 2 C-5.98821313 1.60235737 -7.98944339 1.26224651 -10 1 C-10 0.67 -10 0.34 -10 0 C-3.375 -1.125 -3.375 -1.125 0 0 Z " fill="#E06136" transform="translate(134,27)"/>
</svg>
